<?xml version="1.0" standalone="no"?>
<!DOCTYPE svg PUBLIC "-//W3C//DTD SVG 1.1//EN"
  "http://www.w3.org/Graphics/SVG/1.1/DTD/svg11.dtd">
<svg width="162mm" height="151.99999999999997mm" viewBox="-79 -80.99999999999999 162 151.99999999999997" xmlns="http://www.w3.org/2000/svg" version="1.1">
	<title>svgOutput</title>
	<desc>made with tinkercad</desc>
<path d="M 79.65699768066406 -77.80300140380858 L 80.47200012207031 -76.90799713134764 L 81.12799835205078 -75.90499877929686 L 81.60800170898438 -74.81800079345702 L 81.88787841796875 -73.72799682617186 L 81.9020004272461 -73.67299652099608 L 81.91999816894531 -73.45755004882811 L 82 -72.49999999999999 L 82 -65.53600311279295 L 82 -49.15200042724608 L 82 -32.76800155639648 L 82 -16.38400077819824 L 82 1.1102230246251565e-16 L 82 16.38400077819824 L 82 32.76800155639648 L 82 49.15200042724608 L 82 62.499999999999986 L 81.91999816894531 63.45755004882811 L 81.9020004272461 63.673000335693345 L 81.60800170898438 64.81800079345702 L 81.29094696044922 65.53600311279295 L 81.12799835205078 65.90499877929686 L 80.47200012207031 66.90799713134764 L 79.65699768066406 67.80300140380858 L 78.7020034790039 68.56800079345702 L 77.8239974975586 69.07264709472655 L 77.63200378417969 69.18299865722655 L 76.47200012207031 69.63300323486327 L 75.2509994506836 69.90799713134764 L 74 69.99999999999999 L 73.72799682617188 69.99999999999999 L 65.53600311279297 69.99999999999999 L 57.34400177001953 69.99999999999999 L 49.152000427246094 69.99999999999999 L 40.959999084472656 69.99999999999999 L 32.768001556396484 69.99999999999999 L 24.576000213623047 69.99999999999999 L 16.384000778198242 69.99999999999999 L 8.192000389099121 69.99999999999999 L 0 69.99999999999999 L -8.192000389099121 69.99999999999999 L -16.384000778198242 69.99999999999999 L -24.576000213623047 69.99999999999999 L -32.768001556396484 69.99999999999999 L -40.959999084472656 69.99999999999999 L -49.152000427246094 69.99999999999999 L -57.34400177001953 69.99999999999999 L -65.53600311279297 69.99999999999999 L -69.63200378417969 69.99999999999999 L -70 69.99999999999999 L -71.2509994506836 69.90799713134764 L -72.47200012207031 69.63300323486327 L -73.63200378417969 69.18299865722655 L -73.72799682617188 69.12782287597655 L -74.7020034790039 68.56800079345702 L -75.65699768066406 67.80300140380858 L -76.47200012207031 66.90799713134764 L -77.12799835205078 65.90499877929686 L -77.29094696044922 65.53600311279295 L -77.60800170898438 64.81800079345702 L -77.9020004272461 63.673000335693345 L -78 62.499999999999986 L -78 61.43999862670897 L -78 57.34400177001952 L -78 49.15200042724608 L -78 40.95999908447265 L -78 32.76800155639648 L -78 24.57600021362304 L -78 16.38400077819824 L -78 8.19200038909912 L -78 1.1102230246251565e-16 L -78 -8.19200038909912 L -78 -16.38400077819824 L -78 -24.57600021362304 L -78 -32.76800155639648 L -78 -40.95999908447265 L -78 -49.15200042724608 L -78 -57.34400177001952 L -78 -65.53600311279295 L -78 -69.63200378417967 L -78 -72.49999999999999 L -77.9020004272461 -73.67299652099608 L -77.88787841796875 -73.72799682617186 L -77.60800170898438 -74.81800079345702 L -77.12799835205078 -75.90499877929686 L -76.47200012207031 -76.90799713134764 L -75.65699768066406 -77.80300140380858 L -74.7020034790039 -78.56800079345702 L -73.72799682617188 -79.12782287597655 L -73.63200378417969 -79.18299865722655 L -72.47200012207031 -79.63300323486327 L -71.2509994506836 -79.90799713134764 L -70 -79.99999999999999 L -69.63200378417969 -79.99999999999999 L -65.53600311279297 -79.99999999999999 L -57.34400177001953 -79.99999999999999 L -49.152000427246094 -79.99999999999999 L -40.959999084472656 -79.99999999999999 L -32.768001556396484 -79.99999999999999 L -24.576000213623047 -79.99999999999999 L -16.384000778198242 -79.99999999999999 L -8.192000389099121 -79.99999999999999 L 0 -79.99999999999999 L 8.192000389099121 -79.99999999999999 L 16.384000778198242 -79.99999999999999 L 24.576000213623047 -79.99999999999999 L 32.768001556396484 -79.99999999999999 L 40.959999084472656 -79.99999999999999 L 49.152000427246094 -79.99999999999999 L 57.34400177001953 -79.99999999999999 L 65.53600311279297 -79.99999999999999 L 73.72799682617188 -79.99999999999999 L 74 -79.99999999999999 L 75.2509994506836 -79.90799713134764 L 76.47200012207031 -79.63300323486327 L 77.63200378417969 -79.18299865722655 L 77.8239974975586 -79.07264709472655 L 78.7020034790039 -78.56800079345702 L 79.65699768066406 -77.80300140380858 M 71.53900146484375 -68.45099639892577 L 72.00199890136719 -68.37699890136717 L 72.46600341796875 -68.45099639892577 L 72.88400268554688 -68.66400146484374 L 73.21600341796875 -68.99600219726561 L 73.42900085449219 -69.41400146484374 L 73.4638442993164 -69.63200378417967 L 73.50299835205078 -69.87699890136717 L 73.42900085449219 -70.34100341796874 L 73.21600341796875 -70.75900268554686 L 72.88400268554688 -71.09100341796874 L 72.46600341796875 -71.30400085449217 L 72.00199890136719 -71.37799835205077 L 71.53900146484375 -71.30400085449217 L 71.12100219726562 -71.09100341796874 L 70.78900146484375 -70.75900268554686 L 70.57599639892578 -70.34100341796874 L 70.50199890136719 -69.87699890136717 L 70.5411605834961 -69.63200378417967 L 70.57599639892578 -69.41400146484374 L 70.78900146484375 -68.99600219726561 L 71.12100219726562 -68.66400146484374 L 71.53900146484375 -68.45099639892577 M 66.6206283569336 -49.15200042724608 L 65.53600311279297 -49.704494476318345 L 61.007999420166016 -52.01100158691405 L 54.75 -53.00299835205077 L 48.492000579833984 -52.01100158691405 L 42.84600067138672 -49.13499832153319 L 38.3650016784668 -44.653999328613274 L 35.48899841308594 -39.00799942016601 L 34.500850677490234 -32.76800155639648 L 34.49800109863281 -32.74999999999999 L 35.48899841308594 -26.492000579833977 L 38.3650016784668 -20.846000671386715 L 42.84600067138672 -16.36499977111816 L 48.492000579833984 -13.489000320434567 L 54.75 -12.498000144958493 L 61.007999420166016 -13.489000320434567 L 65.53600311279297 -15.795505523681637 L 66.65399932861328 -16.36499977111816 L 66.6729965209961 -16.38400077819824 L 71.13500213623047 -20.846000671386715 L 73.0350112915039 -24.57600021362304 L 73.72799682617188 -25.936429977416985 L 74.01100158691406 -26.492000579833977 L 75.00299835205078 -32.74999999999999 L 75.0001449584961 -32.76800155639648 L 74.01100158691406 -39.00799942016601 L 73.72799682617188 -39.56356811523437 L 73.01667785644531 -40.95999908447265 L 71.13500213623047 -44.653999328613274 L 66.65399932861328 -49.13499832153319 L 66.6206283569336 -49.15200042724608 M 65.53600311279297 5.7955050468444815 L 61.007999420166016 3.4890000820159903 L 54.75 2.4979999065399165 L 48.492000579833984 3.4890000820159903 L 42.84600067138672 6.364999771118162 L 38.3650016784668 10.8459997177124 L 35.48899841308594 16.49200057983398 L 34.49800109863281 22.749999999999996 L 35.48899841308594 29.00799942016601 L 37.404296875 32.76800155639648 L 38.3650016784668 34.653999328613274 L 42.84600067138672 39.134998321533196 L 48.492000579833984 42.011001586914055 L 54.75 43.002998352050774 L 61.007999420166016 42.011001586914055 L 65.53600311279297 39.70449447631835 L 66.65399932861328 39.134998321533196 L 71.13500213623047 34.653999328613274 L 72.095703125 32.76800155639648 L 73.72799682617188 29.563570022583 L 74.01100158691406 29.00799942016601 L 74.71354675292969 24.57600021362304 L 75.00299835205078 22.749999999999996 L 74.01100158691406 16.49200057983398 L 73.95598602294922 16.38400077819824 L 73.72799682617188 15.936430931091305 L 71.13500213623047 10.8459997177124 L 68.48100280761719 8.19200038909912 L 66.65399932861328 6.364999771118162 L 65.53600311279297 5.7955050468444815 M 71.53900146484375 61.30400085449217 L 72.00199890136719 61.37799835205077 L 72.46600341796875 61.30400085449217 L 72.88400268554688 61.09099960327147 L 73.21600341796875 60.758998870849595 L 73.42900085449219 60.34099960327147 L 73.50299835205078 59.87699890136717 L 73.42900085449219 59.414001464843736 L 73.41779327392578 59.39199829101561 L 73.21600341796875 58.995998382568345 L 72.88400268554688 58.664001464843736 L 72.46600341796875 58.45100021362303 L 72.00199890136719 58.37699890136717 L 71.53900146484375 58.45100021362303 L 71.12100219726562 58.664001464843736 L 70.78900146484375 58.995998382568345 L 70.58721160888672 59.39199829101561 L 70.57599639892578 59.414001464843736 L 70.50199890136719 59.87699890136717 L 70.57599639892578 60.34099960327147 L 70.78900146484375 60.758998870849595 L 71.12100219726562 61.09099960327147 L 71.53900146484375 61.30400085449217 M -69.42900085449219 -70.34100341796874 L -69.50299835205078 -69.87699890136717 L -69.4638442993164 -69.63200378417967 L -69.42900085449219 -69.41400146484374 L -69.21600341796875 -68.99600219726561 L -68.88400268554688 -68.66400146484374 L -68.46600341796875 -68.45099639892577 L -68.00199890136719 -68.37699890136717 L -67.53900146484375 -68.45099639892577 L -67.12100219726562 -68.66400146484374 L -66.78900146484375 -68.99600219726561 L -66.57599639892578 -69.41400146484374 L -66.5411605834961 -69.63200378417967 L -66.50199890136719 -69.87699890136717 L -66.57599639892578 -70.34100341796874 L -66.78900146484375 -70.75900268554686 L -67.12100219726562 -71.09100341796874 L -67.53900146484375 -71.30400085449217 L -68.00199890136719 -71.37799835205077 L -68.46600341796875 -71.30400085449217 L -68.88400268554688 -71.09100341796874 L -69.21600341796875 -70.75900268554686 L -69.42900085449219 -70.34100341796874 M -31.48900032043457 -26.492000579833977 L -30.49799919128418 -32.74999999999999 L -30.500850677490234 -32.76800155639648 L -31.48900032043457 -39.00799942016601 L -34.3650016784668 -44.653999328613274 L -38.84600067138672 -49.13499832153319 L -44.492000579833984 -52.01100158691405 L -50.75 -53.00299835205077 L -57.007999420166016 -52.01100158691405 L -62.65399932861328 -49.13499832153319 L -65.53600311279297 -46.252998352050774 L -67.13500213623047 -44.653999328613274 L -69.01667785644531 -40.95999908447265 L -70.01100158691406 -39.00799942016601 L -71.0001449584961 -32.76800155639648 L -71.00299835205078 -32.74999999999999 L -70.01100158691406 -26.492000579833977 L -69.0350112915039 -24.57600021362304 L -67.13500213623047 -20.846000671386715 L -65.53600311279297 -19.246999740600582 L -62.65399932861328 -16.36499977111816 L -57.007999420166016 -13.489000320434567 L -50.75 -12.498000144958493 L -44.492000579833984 -13.489000320434567 L -38.84600067138672 -16.36499977111816 L -34.3650016784668 -20.846000671386715 L -31.48900032043457 -26.492000579833977 M -34.3650016784668 34.653999328613274 L -33.404296875 32.76800155639648 L -31.48900032043457 29.00799942016601 L -30.49799919128418 22.749999999999996 L -31.48900032043457 16.49200057983398 L -34.3650016784668 10.8459997177124 L -38.84600067138672 6.364999771118162 L -44.492000579833984 3.4890000820159903 L -50.75 2.4979999065399165 L -57.007999420166016 3.4890000820159903 L -62.65399932861328 6.364999771118162 L -65.53600311279297 9.246999740600584 L -67.13500213623047 10.8459997177124 L -69.95598602294922 16.38400077819824 L -70.01100158691406 16.49200057983398 L -71.00299835205078 22.749999999999996 L -70.71354675292969 24.57600021362304 L -70.01100158691406 29.00799942016601 L -68.095703125 32.76800155639648 L -67.13500213623047 34.653999328613274 L -65.53600311279297 36.252998352050774 L -62.65399932861328 39.134998321533196 L -57.007999420166016 42.011001586914055 L -50.75 43.002998352050774 L -44.492000579833984 42.011001586914055 L -38.84600067138672 39.134998321533196 L -34.3650016784668 34.653999328613274 M -68.46600341796875 61.30400085449217 L -68.00199890136719 61.37799835205077 L -67.53900146484375 61.30400085449217 L -67.12100219726562 61.09099960327147 L -66.78900146484375 60.758998870849595 L -66.57599639892578 60.34099960327147 L -66.50199890136719 59.87699890136717 L -66.57599639892578 59.414001464843736 L -66.58721160888672 59.39199829101561 L -66.78900146484375 58.995998382568345 L -67.12100219726562 58.664001464843736 L -67.53900146484375 58.45100021362303 L -68.00199890136719 58.37699890136717 L -68.46600341796875 58.45100021362303 L -68.88400268554688 58.664001464843736 L -69.21600341796875 58.995998382568345 L -69.41779327392578 59.39199829101561 L -69.42900085449219 59.414001464843736 L -69.50299835205078 59.87699890136717 L -69.42900085449219 60.34099960327147 L -69.21600341796875 60.758998870849595 L -68.88400268554688 61.09099960327147 L -68.46600341796875 61.30400085449217 z" fill="none" stroke="rgb(255,0,0)" stroke-width="0.001mm" />
</svg>